<?xml version="1.0" encoding="utf-8"?>
<!-- Uploaded to: SVG Repo, www.svgrepo.com, Generator: SVG Repo Mixer Tools -->
<svg width="800px" height="800px" viewBox="0 0 1024 1024" class="icon"  version="1.1" xmlns="http://www.w3.org/2000/svg"><path d="M408.9 410.3V381c0-4.4-3.6-8-8-8h-53c-4.4 0-8 3.6-8 8v26.2c0 12.1-9.8 21.9-21.9 21.9h-25.2c-4.4 0-8 3.6-8 8v53c0 4.4 3.6 8 8 8h15.1c5.2 0 13.3 4.2 13.3 9.4l1 39.1c0 9.7 2.9 17.5 12.6 17.5h12.3c4 0 7.6 1.3 10.5-0.6 0.3-0.2 0.7-0.4 1.1-0.4H398c6 0 10.9-4.9 10.9-10.9v-33.4c0-11.4 9.2-20.7 20.7-20.7H464c4.4 0 8-3.6 8-8v-62.7c0-8.3-6.8-15.1-15.1-15.1H411c-1.2 0-2.1-0.9-2.1-2z" fill="#F9C0C0" /><path d="M107.6 663.7h88.2v8h-88.2zM358.2 663.7h308.7v8H358.2zM830.4 663.7h80.7v8h-80.7z" fill="#999999" /><path d="M396.9 567.9h-60.2c-9.3 0-16.9-7.6-16.9-16.9v-38.7c0-4.9-4-8.9-8.9-8.9h-38.7c-9.3 0-16.9-7.6-16.9-16.9v-60.2c0-9.3 7.6-16.9 16.9-16.9h0.7v8h-0.7c-4.9 0-8.9 4-8.9 8.9v60.2c0 4.9 4 8.9 8.9 8.9h38.7c9.3 0 16.9 7.6 16.9 16.9V551c0 4.9 4 8.9 8.9 8.9h60.2c4.9 0 8.9-4 8.9-8.9v-38.7c0-9.3 7.6-16.9 16.9-16.9h38.7c4.9 0 8.9-4 8.9-8.9v-60.2c0-4.9-4-8.9-8.9-8.9h-38.7c-9.3 0-16.9-7.6-16.9-16.9v-38.7c0-4.9-4-8.9-8.9-8.9h-60.2c-4.9 0-8.9 4-8.9 8.9v38.7c0 9.3-7.6 16.9-16.9 16.9h-9.7v-8h9.7c4.9 0 8.9-4 8.9-8.9v-38.7c0-9.3 7.6-16.9 16.9-16.9h60.2c9.3 0 16.9 7.6 16.9 16.9v38.7c0 4.9 4 8.9 8.9 8.9h38.7c9.3 0 16.9 7.6 16.9 16.9v60.2c0 9.3-7.6 16.9-16.9 16.9h-38.7c-4.9 0-8.9 4-8.9 8.9V551c0 9.3-7.6 16.9-16.9 16.9zM671.7 251.9h-73.1v-41.6c0-17.3 14.1-31.4 31.4-31.4h10.2c17.3 0 31.4 14.1 31.4 31.4v41.6z m-58.1-15h43.1v-26.6c0-9.1-7.4-16.4-16.4-16.4h-10.2c-9.1 0-16.4 7.4-16.4 16.4v26.6z" fill="#CE0202" /><path d="M937.7 751H846v-7.5c0-55.2-44.9-100.1-100.1-100.1s-100.1 44.9-100.1 100.1v7.5H377.1v-7.5c0-55.2-44.9-100.1-100.1-100.1s-100.1 44.9-100.1 100.1v7.5H85.8c-11.3 0-20.4-9.2-20.4-20.4v-53.8c0-11.3 9.2-20.4 20.4-20.4h14V257.3c0-11.3 9.2-20.4 20.4-20.4h600.6c52.3 0 103.9 36.7 145.3 103.2 34.9 56.2 57.5 127.8 57.5 182.4v133.8h14c11.3 0 20.4 9.2 20.4 20.4v53.8c0.1 11.3-9.1 20.5-20.3 20.5z m-76.9-15h76.9c3 0 5.4-2.4 5.4-5.4v-53.8c0-3-2.4-5.4-5.4-5.4h-29V522.5c0-52-21.7-120.5-55.2-174.5-52-83.7-105.4-96.2-132.6-96.2H120.2c-3 0-5.4 2.4-5.4 5.4v414.1h-29c-3 0-5.4 2.4-5.4 5.4v53.8c0 3 2.4 5.4 5.4 5.4h76.4c3.9-60 53.9-107.6 114.8-107.6s110.9 47.6 114.8 107.6h239.3c3.9-60 53.9-107.6 114.8-107.6S856.9 676 860.8 736z" fill="#999999" /><path d="M275.9 830.6c-48 0-87.1-39.1-87.1-87.1 0-48 39.1-87.1 87.1-87.1 48 0 87.1 39.1 87.1 87.1 0 48-39.1 87.1-87.1 87.1z m0-159.2c-39.8 0-72.1 32.3-72.1 72.1s32.3 72.1 72.1 72.1 72.1-32.3 72.1-72.1-32.3-72.1-72.1-72.1z" fill="#999999" /><path d="M275.9 766.8c-12.9 0-23.4-10.5-23.4-23.4S263 720 275.9 720s23.4 10.5 23.4 23.4-10.5 23.4-23.4 23.4z m0-38.7c-8.5 0-15.4 6.9-15.4 15.4s6.9 15.4 15.4 15.4 15.4-6.9 15.4-15.4-6.9-15.4-15.4-15.4zM747 766.8c-12.9 0-23.4-10.5-23.4-23.4S734.1 720 747 720s23.4 10.5 23.4 23.4-10.5 23.4-23.4 23.4z m0-38.7c-8.5 0-15.4 6.9-15.4 15.4s6.9 15.4 15.4 15.4 15.4-6.9 15.4-15.4-6.9-15.4-15.4-15.4z" fill="#999999" /><path d="M747 830.6c-48 0-87.1-39.1-87.1-87.1 0-48 39.1-87.1 87.1-87.1 48 0 87.1 39.1 87.1 87.1 0 48-39.1 87.1-87.1 87.1z m0-159.2c-39.8 0-72.1 32.3-72.1 72.1s32.3 72.1 72.1 72.1 72.1-32.3 72.1-72.1-32.3-72.1-72.1-72.1zM842 535.1H652.2c-3.6 0-6.6-2.9-6.6-6.6V315.4c0-8.8 7.2-16 16-16H690c44.7 0 86.8 17.5 118.6 49.3 31.8 31.8 49.3 73.9 49.3 118.6V519c0.1 8.9-7 16.1-15.9 16.1z m-188.3-8H842c4.4 0 8-3.6 8-8v-51.7c0-42.6-16.7-82.7-47-113-30.3-30.3-70.4-47-113-47h-28.4c-4.4 0-8 3.6-8 8v211.7zM596.7 244.4h8v419.5h-8z" fill="#999999" /></svg>