<?xml version="1.0" encoding="utf-8"?>
<!-- Uploaded to: SVG Repo, www.svgrepo.com, Generator: SVG Repo Mixer Tools -->
<svg width="800px" height="800px" viewBox="0 0 1024 1024" class="icon"  version="1.1" xmlns="http://www.w3.org/2000/svg"><path d="M993.763 493.538v35c0 13.331-6.04 26.663-18.135 37.137-140.149 121.422-280.35 242.794-420.49 364.219-11.813 10.237-25.813 15.501-42.454 15.501v-35c16.644 0 30.641-5.264 42.454-15.501 140.142-121.425 280.336-242.802 420.49-364.219 12.095-10.474 18.135-23.801 18.135-37.137z" fill="#EC6858" /><path d="M30.239 528.366v-3.5-1.75-3.5-3.5-1.75-3.5-3.5-1.75-3.5-3.5-1.75-3.5c0 14.708 6.701 29.313 19.037 40.02C187.725 653.45 326.325 773.382 464.837 893.403c13.002 11.262 28.74 16.468 47.853 16.996v35c-19.108-0.528-34.851-5.735-47.853-16.996C326.325 808.382 187.725 688.45 49.276 568.386c-12.337-10.705-19.037-25.312-19.037-40.02z" fill="#EC6858" /><path d="M510.786 76.601c16.263 0 32.546 5.362 44.946 16.097 139.949 121.188 279.9 242.376 419.818 363.586 24.241 20.995 24.295 53.412 0.079 74.395C835.48 652.101 695.28 773.478 555.141 894.898c-11.814 10.238-25.813 15.502-42.451 15.502-19.109-0.528-34.853-5.734-47.854-16.994C326.324 773.382 187.724 653.45 49.275 533.386c-19.581-16.987-24.96-43.81-11.895-65.251 3.919-6.438 8.669-11.829 14.465-16.849C189.954 331.733 328.024 212.152 466.107 92.567c12.296-10.639 28.478-15.966 44.679-15.966z" fill="#EE7E5D" /><path d="M595.982 362.973c3.031 0.063 5.05 0.1 7.08 0.122 1.902 0.022 3.816 0.029 5.747 0.031 2.833-0.001 4.779-0.008 6.75-0.019 3.587-0.018 7.266-0.042 11.09-0.042-23.931 37.336-47.526 74.148-71.538 111.616h63.946v30.956h-88.673v21.884h85.298v30.867h-85.738v58.89h-35.765V558.72h-81.891v-31.121h81.415v-21.71h-81.626v-31.086h64.058c-24.101-37.598-47.648-74.323-71.619-111.729 3.276 0 6.476-0.012 9.623-0.024 2.272-0.008 4.52-0.016 6.741-0.016 3.562 0 6.307 0.011 9.039 0.046 2.818 0.035 5.618 0.093 8.417 0.187 1.634 0.053 3.579 2.419 4.647 4.068 22.256 34.526 44.383 69.104 66.669 103.602 1.018 1.581 3.055 3.099 5 3.693 0.483 0.139 0.772 0.202 1.05 0.242 3.448-0.344 4.668-1.852 5.787-3.553 22.346-34.96 44.521-69.345 66.413-103.871 2.327-3.373 4.531-4.41 8.08-4.475z" fill="#EC6A5A" /><path d="M511.951 269.957c139.933 0.181 250.921 96.44 250.9 217.313-0.021 120.948-111.313 217.207-251.083 217.174-139.605-0.034-250.669-96.452-250.606-217.567 0.048-120.643 111.342-216.904 250.789-216.92z m107.11 204.724h-63.946c24.01-37.466 47.605-74.279 71.536-111.616-3.821 0-7.502 0.025-11.09 0.042-1.973 0.011-3.916 0.018-5.841 0.02-2.84-0.001-4.754-0.01-6.658-0.031a358.614 358.614 0 0 1-6.065-0.116c-4.563 0.06-6.771 1.096-8.727 3.916-22.259 35.079-44.435 69.463-66.461 103.927-1.436 2.196-2.656 3.705-4.537 4.039-1.844-0.03-2.134-0.094-2.435-0.179-2.13-0.647-4.166-2.166-5.185-3.747-22.286-34.499-44.413-69.077-66.669-103.602-1.068-1.65-3.016-4.016-4.648-4.068a404.489 404.489 0 0 0-8.415-0.187c-2.73-0.032-5.478-0.045-8.256-0.047-3.005 0.002-5.25 0.008-7.521 0.019-3.146 0.011-6.348 0.024-9.625 0.024 23.971 37.406 47.518 74.132 71.619 111.729H412.08v31.084h81.626V527.6H412.29v31.12h81.891v58.558h35.762v-58.89h85.739v-30.867h-85.297v-21.886h88.674c0.002-10.492 0.002-20.548 0.002-30.954" fill="#F8CED9" /><path d="M512.3 238.923c157.553 0.088 286.566 112.191 286.388 248.704-0.172 136.146-129.338 247.832-286.618 247.849-157.583 0-286.735-111.809-286.754-248.208-0.012-136.61 129.131-248.336 286.984-248.345z m-0.53 465.52c139.769 0.033 251.062-96.226 251.082-217.175 0.021-120.872-110.969-217.132-250.473-217.312-139.875 0.016-251.168 96.278-251.218 216.92-0.063 121.115 110.999 217.531 250.609 217.567" fill="#E47486" /><path d="M798.686 487.628v16.8c-0.171 136.146-129.337 247.831-286.616 247.851-157.583 0-286.735-111.81-286.754-248.208V487.27c0.019 136.398 129.171 248.207 286.754 248.207 157.28-0.018 286.445-111.704 286.616-247.849z" fill="#C45D5C" /><path d="M798.686 487.628v16.8a213.305 213.305 0 0 1-0.421 13.149v-16.8c0.273-4.357 0.415-8.74 0.421-13.149" fill="#C45D5C" /><path d="M798.266 500.776v16.8c-3.091 49.37-23.129 95.062-55.126 132.762v-16.8c31.996-37.699 52.035-83.392 55.126-132.762M743.14 633.538v16.8c-17.32 20.408-38.146 38.476-61.685 53.515v-16.8c23.537-15.039 44.365-33.107 61.685-53.515" fill="#C45D5C" /><path d="M681.455 687.053v16.8c-18.008 11.507-37.606 21.24-58.434 28.896v-16.8c20.828-7.656 40.426-17.39 58.434-28.896M623.021 715.948v16.8c-21.074 7.744-43.408 13.358-66.638 16.529v-16.801c23.23-3.169 45.564-8.785 66.638-16.528" fill="#C45D5C" /><path d="M556.385 732.478v16.8a327.97 327.97 0 0 1-44.314 3.001c-157.583 0-286.735-111.81-286.754-248.208v-16.8c0.02 136.397 129.171 248.207 286.754 248.207a328.297 328.297 0 0 0 44.314-3" fill="#C45D5C" /></svg>