<?xml version="1.0" encoding="utf-8"?>
<!-- Uploaded to: SVG Repo, www.svgrepo.com, Generator: SVG Repo Mixer Tools -->
<svg width="800px" height="800px" viewBox="0 0 1024 1024" class="icon"  version="1.1" xmlns="http://www.w3.org/2000/svg"><path d="M993.763 493.538v35c0 13.331-6.04 26.664-18.135 37.137-140.149 121.422-280.35 242.795-420.49 364.219-11.813 10.237-25.813 15.501-42.454 15.501v-35c16.644 0 30.641-5.264 42.454-15.501C695.28 773.47 835.474 652.092 975.628 530.677c12.095-10.475 18.135-23.803 18.135-37.139z" fill="#33B4E2" /><path d="M30.239 528.367v-3.5-1.75-3.5-3.5-1.75-3.5-3.5-1.75-3.5-3.5-1.75-3.5c0 14.707 6.701 29.313 19.037 40.019 138.449 120.064 277.049 239.996 415.562 360.02 13.002 11.26 28.74 16.466 47.853 16.994v35c-19.108-0.528-34.851-5.734-47.853-16.994C326.325 808.382 187.725 688.45 49.276 568.386c-12.337-10.705-19.037-25.312-19.037-40.019z" fill="#33B4E2" /><path d="M510.786 76.601c16.263 0 32.546 5.362 44.946 16.097 139.949 121.188 279.9 242.376 419.818 363.586 24.241 20.995 24.295 53.413 0.079 74.396C835.48 652.101 695.28 773.478 555.141 894.898c-11.814 10.238-25.813 15.502-42.451 15.502-19.109-0.528-34.853-5.734-47.854-16.994C326.324 773.382 187.724 653.45 49.275 533.386c-19.581-16.987-24.96-43.81-11.895-65.251 3.919-6.438 8.669-11.829 14.465-16.849C189.954 331.734 328.024 212.152 466.107 92.567c12.296-10.64 28.478-15.966 44.679-15.966z" fill="#81CDE3" /><path d="M592.262 310.558v16.8c0 15.597-4.721 30.611-9.723 45.631-4.172 12.502-7.479 25.228-10.938 37.896-0.734 2.689-0.475 5.586-0.707 8.833v-16.8c0.232-3.247-0.029-6.145 0.707-8.834 3.458-12.667 6.765-25.393 10.938-37.895 5.002-15.022 9.723-30.036 9.723-45.631z" fill="#2AA1BF" /><path d="M592.262 310.558v16.8c0 1.61-0.05 3.214-0.146 4.813v-16.8c0.096-1.599 0.146-3.203 0.146-4.813M592.114 315.37v16.8c-0.831 13.885-5.09 27.348-9.575 40.818-4.172 12.502-7.479 25.228-10.938 37.896-0.298 1.088-0.435 2.214-0.503 3.381v-16.801c0.069-1.167 0.205-2.292 0.503-3.381 3.458-12.667 6.765-25.393 10.938-37.895 4.485-13.47 8.744-26.933 9.575-40.818" fill="#2AA1BF" /><path d="M571.1 397.464v16.801c-0.095 1.591-0.069 3.263-0.177 5.04v-16.8c0.106-1.777 0.082-3.449 0.177-5.041M570.923 402.504v16.8c-0.007 0.138-0.017 0.276-0.026 0.413v-16.8c0.009-0.137 0.019-0.275 0.026-0.413" fill="#2AA1BF" /><path d="M566.688 442.84c-10.231-0.478-17.82-5.599-20.013-13.786-0.007-5.6-0.007-11.2 0-16.8 2.191 8.187 9.78 13.308 20.013 13.785v16.801z" fill="#2AA1BF" /><path d="M567.128 426.058v16.801c-11.111-0.372-19.198-6.166-20.806-15.404a66.576 66.576 0 0 1-0.971-11.2V399.175v0.28a66.68 66.68 0 0 0 0.971 11.2c1.608 9.237 9.695 15.031 20.806 15.403" fill="#2AA1BF" /><path d="M681.979 439.081a94.182 94.182 0 0 0-2.43-0.662c-0.026-5.604-0.031-11.209-0.061-16.814 0.837 0.215 1.667 0.438 2.49 0.675 12.481 3.575 19.059 11.347 19.067 20.687v16.8c-0.008-9.34-6.584-17.111-19.066-20.686z" fill="#2AA1BF" /><path d="M701.047 442.967v16.8c-0.01-9.34-6.586-17.112-19.068-20.687-9.627-2.758-20.038-4.077-30.211-4.679a196.87 196.87 0 0 0-11.067-0.325c-12.05 0.031-23.809 1.081-35.41 2.668v-16.8c11.603-1.587 23.36-2.637 35.41-2.669 3.391 0.001 6.792 0.09 11.067 0.326 10.173 0.603 20.584 1.921 30.211 4.678 12.482 3.576 19.058 11.347 19.068 20.688" fill="#2AA1BF" /><path d="M726.867 442.807v16.802c0 5.158-1.058 10.441-3.058 15.814-0.376 1.005-0.578 1.896-0.578 2.744v-16.8c0-0.849 0.203-1.739 0.578-2.744 2.002-5.376 3.058-10.66 3.058-15.816z" fill="#2AA1BF" /><path d="M726.867 442.807v16.801c0 0.777-0.024 1.559-0.071 2.34v-16.8a39.08 39.08 0 0 0 0.071-2.341" fill="#2AA1BF" /><path d="M726.796 445.146v16.801c-0.267 4.41-1.288 8.907-2.985 13.474-0.325 0.874-0.521 1.661-0.566 2.407v-16.8c0.045-0.749 0.24-1.534 0.566-2.408 1.697-4.562 2.717-9.061 2.985-13.474M723.243 461.029v16.8a4.229 4.229 0 0 0-0.013 0.336v-16.8c0.001-0.112 0.004-0.222 0.013-0.336" fill="#2AA1BF" /><path d="M701.047 442.967v16.8c0.004 4.095-1.254 8.488-3.827 12.966-2.051 3.57-3.142 6.038-3.157 8.26v-16.8c0.017-2.223 1.106-4.691 3.157-8.263 2.574-4.474 3.831-8.869 3.827-12.963z" fill="#2AA1BF" /><path d="M701.047 442.967v16.8c0 0.409-0.012 0.822-0.037 1.237v-16.8c0.025-0.415 0.037-0.827 0.037-1.237M701.01 444.205v16.8c-0.225 3.737-1.473 7.699-3.79 11.729-1.936 3.368-3.015 5.758-3.145 7.883v-16.8c0.13-2.125 1.209-4.514 3.145-7.884 2.317-4.03 3.565-7.992 3.79-11.728M694.075 463.815v16.8a6.885 6.885 0 0 0-0.013 0.378v-16.8c0.001-0.125 0.006-0.25 0.013-0.378" fill="#2AA1BF" /><path d="M426.258 486.56a14.339 14.339 0 0 0-0.125 1.922v-16.801c0-0.644 0.038-1.285 0.125-1.921 0.675-4.861 2.391-9.793 4.736-14.263 4.033-7.682 9.82-14.325 17.179-20.096a111.008 111.008 0 0 0 5.407-4.534c0.04 8.433 0.04 8.433-1.336 17.976a107.086 107.086 0 0 1-4.071 3.358c-7.358 5.771-13.146 12.413-17.179 20.096-2.346 4.47-4.06 9.401-4.736 14.263z" fill="#2AA1BF" /><path d="M466.034 418.004v16.8c-5.295 6.239-11.138 12.119-17.859 17.397-3.782 2.965-7.146 6.159-10.071 9.606v-16.8c2.926-3.448 6.291-6.643 10.071-9.606 6.721-5.278 12.564-11.159 17.859-17.397M438.101 445.008v16.8c-2.769 3.263-5.145 6.75-7.104 10.488-2.346 4.469-4.062 9.402-4.736 14.262-0.047 0.333-0.078 0.668-0.097 1.003v-16.8c0.019-0.335 0.05-0.67 0.097-1.003 0.675-4.862 2.391-9.793 4.736-14.263 1.959-3.735 4.335-7.223 7.104-10.487M426.163 470.764v16.801c-0.02 0.305-0.029 0.612-0.029 0.917v-16.801c0-0.306 0.008-0.613 0.029-0.917" fill="#2AA1BF" /><path d="M699.598 490.131c-3.792-3.841-5.554-6.281-5.534-9.136v-16.8c-0.02 2.854 1.742 5.295 5.534 9.135 6.239 6.333 9.417 12.703 9.445 19.05v16.8c-0.028-6.347-3.206-12.716-9.445-19.049z" fill="#2AA1BF" /><path d="M709.043 492.381v16.8c-0.03-6.348-3.206-12.718-9.445-19.05-3.792-3.841-5.554-6.281-5.534-9.136v-16.8c-0.02 2.854 1.742 5.295 5.534 9.135 6.239 6.334 9.417 12.704 9.445 19.051" fill="#2AA1BF" /><path d="M735.046 492.39v16.801c0 9.193-3.369 18.398-10.128 26.978v-16.8c6.759-8.579 10.128-17.785 10.128-26.979z" fill="#2AA1BF" /><path d="M735.046 492.39v16.801c0 0.763-0.022 1.522-0.067 2.283v-16.8c0.044-0.761 0.067-1.521 0.067-2.284" fill="#2AA1BF" /><path d="M734.98 494.674v16.8c-0.514 8.431-3.862 16.826-10.063 24.697v-16.8c6.201-7.872 9.549-16.267 10.063-24.697" fill="#2AA1BF" /><path d="M709.043 492.381v16.8c0.029 6.349-3.094 12.671-9.454 18.913-3.653 3.591-5.552 7.047-5.528 10.882v-16.8c-0.022-3.835 1.875-7.291 5.528-10.881 6.36-6.242 9.483-12.566 9.454-18.914z" fill="#2AA1BF" /><path d="M709.043 492.381v16.8c0.003 0.414-0.008 0.829-0.034 1.243v-16.8c0.026-0.414 0.037-0.828 0.034-1.243M709.009 493.625v16.8c-0.297 4.907-2.479 9.797-6.594 14.645v-16.801c4.112-4.848 6.297-9.738 6.594-14.644M702.415 508.268v16.801a44.556 44.556 0 0 1-2.826 3.025 29.471 29.471 0 0 0-1.791 1.917v-16.8a29.77 29.77 0 0 1 1.791-1.917 46.088 46.088 0 0 0 2.826-3.026" fill="#2AA1BF" /><path d="M697.798 513.212v16.8c-2.281 2.688-3.544 5.353-3.717 8.21v-16.8c0.173-2.859 1.436-5.524 3.717-8.21M694.081 521.422v16.8c-0.016 0.25-0.022 0.501-0.021 0.755v-16.8c-0.001-0.253 0.005-0.505 0.021-0.755" fill="#2AA1BF" /><path d="M722.601 542.045v-16.801c0-2.019 0.709-3.83 2.317-5.874v16.801c-1.608 2.043-2.317 3.854-2.317 5.874z" fill="#2AA1BF" /><path d="M724.918 519.371v16.8c-1.472 1.87-2.192 3.548-2.303 5.37v-16.8c0.111-1.822 0.831-3.501 2.303-5.37M722.615 524.74v16.799a7.01 7.01 0 0 0-0.018 0.504v-16.8c0.004-0.168 0.008-0.336 0.018-0.503" fill="#2AA1BF" /><path d="M696.212 546.401c-1.433-2.686-2.138-5.122-2.151-7.425v-16.8c0.015 2.301 0.72 4.739 2.151 7.424 1.192 2.231 2.089 4.468 2.692 6.694l-0.045 16.633c-0.604-2.169-1.483-4.35-2.647-6.526z" fill="#2AA1BF" /><path d="M699.848 543.147v16.801c-0.011-4.439-1.206-9.008-3.636-13.547-1.433-2.686-2.138-5.122-2.151-7.425v-16.8c0.015 2.301 0.72 4.739 2.151 7.424 2.429 4.541 3.625 9.109 3.636 13.547" fill="#2AA1BF" /><path d="M699.848 543.147v16.801c0.024 9.089-4.926 17.638-14.462 24.313-5.51 3.854-8.331 7.817-8.331 13.254v-16.8c0-5.437 2.822-9.4 8.331-13.254 9.536-6.675 14.485-15.224 14.462-24.314z" fill="#2AA1BF" /><path d="M699.848 543.147v16.801a26.76 26.76 0 0 1-0.043 1.553v-16.8a26.77 26.77 0 0 0 0.043-1.554M699.805 544.701v16.8c-0.339 5.619-2.599 10.998-6.684 15.818v-16.801c4.084-4.818 6.344-10.198 6.684-15.817M693.119 560.521v16.8c-2.1 2.478-4.684 4.805-7.733 6.941-2.044 1.43-3.718 2.874-5.017 4.404v-16.801c1.299-1.529 2.973-2.976 5.017-4.403 3.052-2.139 5.635-4.465 7.733-6.941M680.369 571.865v16.801c-2.003 2.362-3.107 4.927-3.289 7.947v-16.8c0.182-3.021 1.286-5.586 3.289-7.948M677.08 579.812v16.801c-0.02 0.297-0.027 0.598-0.027 0.903v-16.8c0.002-0.307 0.01-0.608 0.027-0.904" fill="#2AA1BF" /><path d="M725.606 543.875v16.8c0 12.583-5.343 24.13-15.999 34.377-3.859 3.706-5.498 6.983-5.498 12.063v-1.681-0.841-1.68-1.68-0.842-1.679-1.681-0.841-1.68-1.681-0.841-1.68c0-5.078 1.639-8.355 5.498-12.063 10.658-10.239 15.999-21.786 15.999-34.37z" fill="#2AA1BF" /><path d="M725.606 543.875v16.8c0 0.893-0.027 1.779-0.08 2.659v-16.8c0.055-0.88 0.08-1.767 0.08-2.659" fill="#2AA1BF" /><path d="M725.527 546.536v16.8c-0.588 9.644-4.386 18.648-11.381 26.897v-16.801c6.997-8.247 10.793-17.253 11.381-26.896M714.146 573.434v16.801a64.823 64.823 0 0 1-4.537 4.817 26.558 26.558 0 0 0-1.877 1.979v-16.8a25.974 25.974 0 0 1 1.877-1.979 65.03 65.03 0 0 0 4.537-4.818M707.732 580.229v16.801c-2.256 2.655-3.373 5.301-3.586 8.809v-16.8c0.211-3.509 1.331-6.151 3.586-8.81M704.146 589.039v16.8c-0.023 0.413-0.036 0.837-0.036 1.275v-16.8c0-0.438 0.014-0.862 0.036-1.275" fill="#2AA1BF" /><path d="M534.43 276.062c1.369 0.055 1.772 0.098 2.206 0.155 18.185 2.89 27.911 12.623 29.321 28.276 0.167 1.859 0.251 3.706 0.256 5.542 0.044 12.858-3.646 25.186-8.058 37.423-5.242 14.553-10.824 29.06-12.419 44.319a70.912 70.912 0 0 0-0.386 7.671c0.015 3.759 0.329 7.527 0.97 11.202 1.608 9.238 9.695 15.032 19.67 15.388 2.871 0.006 4.654-0.168 6.468-0.513l1.468-0.279c21.836-4.144 43.771-7.912 66.117-7.971 4.047 0 7.446 0.089 10.859 0.275 11.037 0.651 21.448 1.969 31.076 4.729 12.482 3.573 19.059 11.345 19.067 20.687 0.004 4.093-1.254 8.488-3.827 12.964-2.051 3.571-3.142 6.042-3.156 8.263-0.02 2.855 1.742 5.296 5.535 9.136 6.24 6.334 9.417 12.704 9.444 19.052 0.029 6.348-3.094 12.671-9.454 18.914-3.654 3.59-5.552 7.046-5.528 10.881 0.015 2.303 0.72 4.74 2.151 7.425 2.429 4.539 3.625 9.105 3.636 13.547 0.024 9.09-4.926 17.64-14.462 24.313-5.51 3.853-8.331 7.817-8.331 13.254 0 1.386 0.184 2.867 0.553 4.465 0.54 2.345 0.804 4.598 0.797 6.756-0.031 11.005-7.068 19.619-20.11 25.719-13.528 6.321-28.265 9.741-43.345 9.83a4685.532 4685.532 0 0 1-21.479 0.061c-29.355-0.005-57.818-0.341-86.246-1.229l-3.268-0.104c-25.009-0.821-49.946-3.58-74.914-5.474-0.575-0.043-1.149-0.166-1.654-0.245 0-21.636 0.011-43.183 0.011-64.684 0-24.368-0.013-48.676-0.06-72.981-0.01-3.683-1.188-7.427-1.205-11.063-0.003-0.671 0.033-1.341 0.125-2.006 0.675-4.863 2.391-9.794 4.737-14.265 4.032-7.682 9.819-14.324 17.177-20.095 14.545-11.418 24.967-25.655 34.633-40.251 18.75-28.285 33.939-58.026 46.975-88.597 0.707-1.651 0.86-3.485 0.858-5.363 0-1.479-0.096-2.989-0.095-4.46 0.163-5.995-0.069-11.164 0.335-16.287 0.257-3.179 1.077-4.328 3.552-4.38z" fill="#ACDCE7" /><path d="M614.946 627.485v16.8a4214.66 4214.66 0 0 1-21.478 0.061c-29.355-0.004-57.82-0.341-86.247-1.229l-3.268-0.104c-25.009-0.821-49.946-3.581-74.914-5.475-0.576-0.044-1.15-0.165-1.654-0.245v-16.8c0.503 0.079 1.079 0.201 1.654 0.245 24.967 1.895 49.905 4.651 74.914 5.474l3.268 0.104c28.427 0.89 56.891 1.227 86.247 1.229 3.409 0 6.817-0.006 10.229-0.016 3.749-0.008 7.502-0.024 11.249-0.044z" fill="#2AA1BF" /><path d="M614.946 627.485v16.8a4214.66 4214.66 0 0 1-21.478 0.061c-29.355-0.004-57.82-0.341-86.247-1.229l-3.268-0.104c-25.009-0.821-49.946-3.581-74.914-5.475-0.576-0.044-1.15-0.165-1.654-0.245v-16.8c0.503 0.079 1.079 0.201 1.654 0.245 24.967 1.895 49.905 4.651 74.914 5.474l3.268 0.104c28.427 0.89 56.891 1.227 86.247 1.229 3.409 0 6.817-0.006 10.229-0.016 3.749-0.008 7.502-0.024 11.249-0.044" fill="#2AA1BF" /><path d="M724.918 519.371c-2.509 3.186-2.83 5.812-1.682 9.54 5.693 18.473 1.13 35.154-13.627 49.341-3.951 3.795-5.574 7.141-5.495 12.431 0.334 20.496-11.311 35.378-31.316 45.542-17.753 9.023-37.388 13.102-57.66 13.859a972.374 972.374 0 0 1-36.302 0.654c-29.229 0-58.448-1.163-87.621-2.738-25.604-1.379-51.096-4.129-76.648-6.137-3.116-0.047-5.18 0.302-6.743 1.063-6.694 3.256-13.829 4.811-21.401 4.837-10.477 0.043-20.959 0.085-31.434 0.085-8.188 0-16.372-0.023-24.56-0.094-19.968-0.156-34.756-9.837-39.937-26.146-1.088-3.431-1.45-7.142-1.461-10.721-0.091-43.444-0.091-86.893-0.05-130.341 0.028-22.251 16.943-36.829 42.7-36.891 1.817-0.003 3.638-0.003 5.455-0.003 4.391 0 8.783 0.005 13.182 0.011 4.211 0.002 8.427 0.008 12.641 0.008 5.549 0 11.1-0.008 16.651-0.042a329.1 329.1 0 0 1 2.626-0.01c8.241 0 16.388 0.383 24.126 4.14 5.44-9.559 11.449-18.551 20.443-25.482 9.484-7.306 17.84-15.442 23.99-24.913 11.885-18.332 23.386-36.875 34.211-55.687 6.705-11.644 12.098-23.875 17.568-36.018 1.543-3.423 1.371-7.456 1.806-11.227 0.898-7.803 0.827-15.774 2.741-23.376 2.277-9.098 9.677-14.84 20.13-17.398h10.746c8.285 2.383 17.156 3.815 24.737 7.322 18.323 8.495 26.75 22.977 28.958 40.384 2.398 18.934-3.176 36.873-9.152 54.821-4.171 12.502-7.479 25.228-10.936 37.896-0.735 2.689-0.476 5.587-0.707 8.833 9.688-1.571 18.688-3.265 27.771-4.477 15.165-2.025 30.348-3.568 45.537-3.568 11.519 0 23.038 0.887 34.558 3.124 15.192 2.949 28.871 8.493 38.377 19.736 10.593 12.528 12.077 26.373 6.673 40.89-0.966 2.583-0.784 4.409 1.029 6.705 13.554 17.111 13.634 36.832 0.076 54.047z m-25.33-8.076c6.36-6.243 9.481-12.565 9.455-18.914-0.03-6.348-3.206-12.717-9.445-19.05-3.792-3.84-5.554-6.281-5.534-9.135 0.014-2.222 1.104-4.691 3.155-8.265 2.575-4.476 3.832-8.87 3.828-12.963-0.01-9.341-6.586-17.112-19.067-20.687-9.628-2.758-20.039-4.077-30.212-4.679a197.827 197.827 0 0 0-11.067-0.325c-23.003 0.06-44.937 3.831-66.773 7.974-0.489 0.091-0.978 0.185-1.465 0.277a29.19 29.19 0 0 1-5.333 0.528c-11.111-0.372-19.198-6.166-20.806-15.404a66.471 66.471 0 0 1-0.97-11.2 70.123 70.123 0 0 1 0.386-7.672c1.594-15.259 7.176-29.768 12.417-44.319 4.411-12.238 8.103-24.566 8.06-37.422a63.505 63.505 0 0 0-0.258-5.544c-1.41-15.653-11.138-25.384-28.354-28.134-1.399-0.198-1.806-0.241-2.177-0.268-3.472 0.024-4.292 1.174-4.546 4.354-0.403 5.124-0.173 10.293-0.323 15.442-0.012 2.314 0.085 3.823 0.086 5.304 0 1.879-0.153 3.712-0.86 5.363-13.034 30.572-28.225 60.313-46.972 88.597-9.667 14.596-20.091 28.834-34.636 40.252-7.357 5.771-13.144 12.413-17.179 20.096-2.346 4.47-4.062 9.402-4.736 14.263-0.09 0.665-0.127 1.333-0.125 2.007 0.016 3.637 1.195 7.381 1.203 11.063 0.049 24.305 0.06 48.613 0.06 72.979 0 21.503-0.009 43.05-0.009 64.684 0.503 0.08 1.079 0.204 1.653 0.245 24.967 1.895 49.905 4.653 74.914 5.475l3.268 0.104c28.429 0.889 56.892 1.226 85.347 1.229a3692.233 3692.233 0 0 0 22.377-0.061c15.079-0.087 29.814-3.51 43.346-9.83 13.043-6.101 20.078-14.715 20.108-25.719 0.008-2.16-0.258-4.409-0.797-6.755-0.368-1.602-0.552-3.081-0.552-4.466 0.001-5.438 2.823-9.399 8.331-13.255 9.538-6.677 14.487-15.225 14.462-24.313-0.011-4.439-1.205-9.009-3.635-13.548-1.432-2.685-2.137-5.121-2.152-7.424-0.026-3.836 1.874-7.293 5.527-10.884m-298.074 99.682c0.015-21.774 0.021-43.55 0.021-65.326 0-21.777-0.008-43.556-0.021-65.334-0.01-9.689-5.292-14.282-16.431-14.31a10934.695 10934.695 0 0 0-53.725 0c-11.178 0.027-16.44 4.602-16.44 14.257-0.011 10.855-0.013 21.709-0.013 32.566l0.001 32.573c0 11.047-0.009 22.097-0.009 33.146 0 11.051 0.005 22.104 0.03 33.154 0.011 8.79 5.666 13.575 15.876 13.583 9.031 0.003 18.062 0.008 27.089 0.008 9.03 0 18.059-0.005 27.092-0.016 11.066-0.018 16.518-4.68 16.53-14.301" fill="#39B5E1" /><path d="M358.22 465.973c8.954 0 17.907 0.012 26.862 0.033 11.139 0.027 16.421 4.618 16.431 14.309a101602.946 101602.946 0 0 1 0 130.662c-0.011 9.62-5.463 14.283-16.534 14.302-9.029 0.011-18.059 0.017-27.089 0.017-9.029 0-18.058-0.006-27.089-0.01-10.21-0.007-15.865-4.792-15.876-13.581-0.025-11.053-0.03-22.104-0.03-33.156 0.002-11.05 0.009-22.099 0.009-33.146l-0.001-32.575c0-10.855 0.001-21.71 0.012-32.566 0-9.653 5.262-14.229 16.439-14.256 8.959-0.022 17.911-0.033 26.866-0.033z" fill="#8BD1E6" /><path d="M288.953 549.384v-16.518c0 26.009 0.023 52.017 0.078 78.022 0.011 3.58 0.374 7.289 1.461 10.721 5.181 16.307 19.969 25.988 39.937 26.145 8.188 0.071 16.371 0.095 24.56 0.095 10.475 0 20.958-0.041 31.434-0.085 7.572-0.027 14.707-1.582 21.401-4.837 1.563-0.763 3.627-1.111 6.743-1.064v16.8c-3.116-0.046-5.18 0.303-6.743 1.064-6.694 3.255-13.829 4.811-21.401 4.837a7660.73 7660.73 0 0 1-31.434 0.086c-8.188 0-16.372-0.024-24.56-0.096-19.968-0.154-34.755-9.837-39.937-26.145-1.088-3.431-1.45-7.142-1.461-10.721-0.056-26.1-0.078-52.202-0.078-78.304z" fill="#2AA1BF" /><path d="M414.566 641.864v16.8c-1.4-0.021-2.59 0.037-3.615 0.178v-16.8c1.026-0.141 2.215-0.199 3.615-0.178" fill="#2AA1BF" /><path d="M410.953 642.042v16.8c-0.905 0.125-1.686 0.313-2.371 0.563v-16.801a11.272 11.272 0 0 1 2.371-0.562M408.581 642.604v16.801a8.315 8.315 0 0 0-0.759 0.321 47.829 47.829 0 0 1-4.396 1.872v-16.8a48.065 48.065 0 0 0 4.396-1.872c0.241-0.115 0.493-0.224 0.759-0.322" fill="#2AA1BF" /><path d="M403.428 644.8v16.8a47.774 47.774 0 0 1-10.04 2.487v-16.801a47.772 47.772 0 0 0 10.04-2.486M393.388 647.288v16.8a52.95 52.95 0 0 1-6.967 0.479c-10.477 0.042-20.959 0.085-31.434 0.085-8.188 0-16.372-0.024-24.56-0.096-19.968-0.154-34.755-9.837-39.937-26.145-1.088-3.431-1.451-7.141-1.462-10.72-0.055-26.104-0.078-52.204-0.078-78.309v-16.8c0 26.104 0.023 52.205 0.078 78.308 0.011 3.58 0.374 7.289 1.462 10.721 5.182 16.307 19.969 25.988 39.937 26.145 8.188 0.071 16.371 0.096 24.56 0.096 10.475 0 20.958-0.041 31.434-0.086a53.123 53.123 0 0 0 6.967-0.478" fill="#2AA1BF" /><path d="M704.12 591.535v16.806c0 20.06-11.593 34.67-31.322 44.689-17.753 9.022-37.388 13.101-57.66 13.858a972.375 972.375 0 0 1-36.302 0.655c-29.229 0-58.448-1.164-87.621-2.739-25.604-1.379-51.096-4.129-76.648-6.137v-16.8c25.553 2.008 51.044 4.756 76.648 6.137 29.173 1.575 58.391 2.738 87.621 2.738 12.098 0 24.205-0.202 36.302-0.654 20.271-0.759 39.907-4.836 57.66-13.858 19.728-10.026 31.322-24.636 31.322-44.695z" fill="#2AA1BF" /><path d="M704.12 591.535v16.8c0 1.031-0.029 2.05-0.089 3.052v-16.8c0.059-1.002 0.089-2.02 0.089-3.052M704.029 594.587v16.8c-0.609 10.023-4.232 18.617-10.404 25.9v-16.8c6.172-7.283 9.795-15.878 10.404-25.9M693.625 620.487v16.8c-3.664 4.327-8.23 8.192-13.592 11.618v-16.801c5.362-3.425 9.928-7.29 13.592-11.617M680.033 632.104v16.801a85.349 85.349 0 0 1-7.238 4.119 116.231 116.231 0 0 1-12.633 5.499v-16.801a116.231 116.231 0 0 0 12.633-5.499 83.553 83.553 0 0 0 7.238-4.119" fill="#2AA1BF" /><path d="M660.162 641.724v16.801c-9.149 3.361-18.685 5.611-28.458 6.947v-16.8c9.775-1.336 19.309-3.587 28.458-6.948M631.704 648.672v16.8a169.32 169.32 0 0 1-16.566 1.413 970.228 970.228 0 0 1-36.302 0.654c-29.229 0-58.448-1.162-87.621-2.737-25.604-1.38-51.096-4.129-76.648-6.138v-16.8c25.553 2.009 51.044 4.757 76.648 6.138 29.173 1.574 58.391 2.736 87.621 2.736 12.098 0 24.205-0.2 36.302-0.653 5.578-0.209 11.11-0.668 16.566-1.413" fill="#2AA1BF" /></svg>