<?xml version="1.0" ?>

<!-- Uploaded to: SVG Repo, www.svgrepo.com, Generator: SVG Repo Mixer Tools -->
<svg fill="#000000" width="800px" height="800px" viewBox="0 0 512 512" version="1.1" xml:space="preserve" xmlns="http://www.w3.org/2000/svg" xmlns:xlink="http://www.w3.org/1999/xlink">

<g id="dinner-candle-wine-love-romance">

<path d="M360,400c0,2.8,0.48,5.52,1.44,8H96H56c-13.234,0-24-10.766-24-24V192c0-13.234,10.766-24,24-24h4.428   c-8.799-7.755-14.446-17.815-11.768-28C53.395,122,72,117.5,72,104c14.721,7.739,24,21.351,24,36c0,10.464-4.798,20.357-12.869,28   H96c13.234,0,24,10.766,24,24v99.762C148.206,246.292,198.528,216,256,216c29.12,0,56.4,7.76,80,21.36V264   c0,32.4,18.96,60.8,48,73.28V360H96.807c1.154-11.634,3.685-22.84,7.193-33.605V216h-4c-6.64,0-12,5.36-12,12v16   c0,6.64-5.36,12-12,12s-12-5.36-12-12v-24c0-6.64-5.36-12-12-12h-4v176c0,4.414,3.586,8,8,8h24c0-8.8,7.2-16,16-16h268.32   C359.292,384.725,360,391.439,360,400z M480,192c0,29.747,0,46.111,0,72.078c0,29.059-19.552,54.39-48,61.776V376h8   c8.8,0,16,7.2,16,16v8c0,4.4-3.6,8-8,8h-64c-4.4,0-8-3.6-8-8v-8c0-8.8,7.2-16,16-16h8v-50.15c-30.108-7.831-48-33.846-48-61.85   c0-15.866,0,37.176,0-72c0-13.234,10.766-24,24-24h80C469.234,168,480,178.766,480,192z M368,192v42.794   c17.705-11.434,40.729-9.796,52.93-2.443c18.41,11.136,28.474,25.95,43.07,22.604V192c0-4.414-3.586-8-8-8h-80   C371.586,184,368,187.586,368,192z M250.272,213.585c3.14,3.22,8.315,3.22,11.455,0l19.952-20.46   c7.017-7.196,8.387-18.748,2.104-26.593c-7.145-8.922-20.021-9.403-27.784-1.442c-7.763-7.96-20.64-7.479-27.784,1.442   c-6.283,7.845-4.913,19.398,2.104,26.593L250.272,213.585z"/>

</g>

<g id="Layer_1"/>

</svg>