<?xml version="1.0" ?>

<!-- Uploaded to: SVG Repo, www.svgrepo.com, Generator: SVG Repo Mixer Tools -->
<svg fill="#000000" width="800px" height="800px" viewBox="0 0 512 512" version="1.1" xml:space="preserve" xmlns="http://www.w3.org/2000/svg" xmlns:xlink="http://www.w3.org/1999/xlink">

<g id="female-gender-heart-love-valentine">

<path d="M408.72,227.68c-33.52-33.52-81.04-44.48-123.76-33.04c-6.4-7.36-15.28-12.48-25.36-13.84   c-11.76-1.52-23.6,2.08-32.48,9.84c-0.48,0.4-0.88,0.8-1.28,1.28l-32.08-32.08l22.64-22.64c9.36-9.36,9.36-24.56,0-33.92   c-9.393-9.393-24.524-9.395-33.92,0l-22.64,22.64l-22.64-22.64c-9.36-9.36-24.56-9.36-33.92,0c-9.393,9.393-9.396,24.524,0,33.92   l22.64,22.64l-22.64,22.64c-9.36,9.36-9.36,24.56,0,33.92c9.392,9.393,24.524,9.396,33.92,0l22.64-22.64l32.08,32.08   c-0.48,0.4-0.88,0.8-1.28,1.28c-7.76,8.88-11.36,20.72-9.84,32.48c1.36,10.08,6.48,18.96,13.84,25.36   c-11.92,44.24,0.32,93.6,36.72,127.28c48.16,44.56,124.24,44.96,172.72,0.88C458.64,363.68,460.24,279.2,408.72,227.68z    M222.88,279.6c-9.28-0.08-17.6-4.72-22.24-11.76c-10.667-15.591,0.093-38.48,20.56-38.48c0.08,0,0.08,0,0.16,0   c5.227-0.454,8-3.815,8-8c0-20.513,22.74-31.489,38.48-20.72c7.04,4.64,11.68,12.96,11.76,22.24   c0.197,31.013,0.142,20.46,0.24,46.24c0,6.423-5.497,11.046-10.72,10.72C243.359,279.741,253.906,279.796,222.88,279.6z    M374.8,374.8c-31.28,31.2-81.92,31.2-113.12,0c-21.44-21.44-28.16-52-20.24-79.12l27.6,0.16c0,0,0.08,0,0.16,0   c14.047,0,26.64-11.323,26.64-26.8l-0.16-27.6c27.12-7.92,57.68-1.2,79.12,20.24C406,292.88,406,343.52,374.8,374.8z    M151.538,307.221l0.359,28.576c0.057,4.497-3.604,8.156-8.1,8.1l-28.576-0.359c-10.05-0.126-19.188-7.326-20.292-17.316   c-1.257-11.361,7.509-20.807,18.626-20.667c-0.14-11.118,9.306-19.883,20.667-18.626   C144.211,288.033,151.411,297.17,151.538,307.221z M286.928,134.221c-1.257-11.361,7.509-20.807,18.626-20.667   c-0.14-11.118,9.306-19.883,20.667-18.626c9.99,1.104,17.19,10.242,17.316,20.292l0.359,28.576c0.057,4.497-3.604,8.156-8.1,8.1   l-28.576-0.359C297.171,151.411,288.033,144.211,286.928,134.221z"/>

</g>

<g id="Layer_1"/>

</svg>