<?xml version="1.0" ?>

<!-- Uploaded to: SVG Repo, www.svgrepo.com, Generator: SVG Repo Mixer Tools -->
<svg fill="#000000" width="800px" height="800px" viewBox="0 0 512 512" version="1.1" xml:space="preserve" xmlns="http://www.w3.org/2000/svg" xmlns:xlink="http://www.w3.org/1999/xlink">

<g id="gift_box-box_open-heart-love-valentine">

<path d="M98.468,174.126l-19.952-20.46c-7.017-7.196-8.387-18.749-2.104-26.593c7.145-8.922,20.022-9.403,27.784-1.442   c7.763-7.96,20.64-7.479,27.785,1.442c6.282,7.845,4.913,19.397-2.104,26.593l-19.953,20.46   C106.784,177.346,101.608,177.346,98.468,174.126z M440,232v176c0,17.673-14.327,32-32,32h-64.063c-8.837,0-16-7.163-16-16V232h-56   v192c0,8.837-7.163,16-16,16L192,440c-17.669,0-32-14.317-32-31.986c0-15.404-0.06-31.565-0.076-42.962L137.52,425.04   c-3.04,8.24-12.32,12.48-20.56,9.36L102,428.8c-16.56-6.16-24.96-24.64-18.8-41.2c35.467-94.885,29.152-77.975,36.4-97.44   l44.96,16.8L184,254.988V254.5l-44.8-16.74c7.261-19.503,0.864-2.371,36.4-97.44c6.24-16.56,24.64-24.96,41.2-18.8l14.96,5.6   c8.315,3.113,12.533,12.376,9.421,20.691l-2.023,5.407c11.952-2.916,23.795-0.19,32.842,6.125   c17.504-12.211,42.038-9.022,55.719,8.785c10.676,13.896,10.819,33.124,1.392,47.871H424C432.8,216,440,223.2,440,232z    M230.56,176.196l-6.496,17.36c0.176,6.623,2.783,13.291,7.866,18.424l3.976,4.02c8.323,0,63.117,0,72.193,0l3.972-4.016   c9.359-9.457,10.633-24.121,2.961-34.105c-9.633-12.541-27.106-12.833-37.344-2.492c-3,3.039-8.375,3.039-11.375,0   C256.877,165.849,240.837,164.992,230.56,176.196z M408,328c0-4.4-3.6-8-8-8s-8,3.6-8,8v52.08c0,4.48,3.6,8,8,8s8-3.52,8-8V328z    M408,255.52c0-4.4-3.6-8-8-8s-8,3.6-8,8V288c0,4.4,3.6,8,8,8s8-3.6,8-8V255.52z M370.739,162.485   c7.318,7.398,19.204,7.398,26.522,0l32.5-32.855c11.85-11.979,13.89-31.229,3.614-44.605C420.961,68.863,397.847,67.782,384,81.78   c-13.847-13.998-36.961-12.917-49.375,3.245c-10.275,13.376-8.235,32.626,3.614,44.605L370.739,162.485z"/>

</g>

<g id="Layer_1"/>

</svg>